<?xml version="1.0" encoding="UTF-8"?>
<svg width="22px" height="22px" viewBox="0 0 22 22" version="1.1" xmlns="http://www.w3.org/2000/svg" xmlns:xlink="http://www.w3.org/1999/xlink">
    <!-- Generator: Sketch 55.2 (78181) - https://sketchapp.com -->
    <title>图标/聚合流量指标/选中</title>
    <desc>Created with Sketch.</desc>
    <g id="全流程" stroke="none" stroke-width="1" fill="none" fill-rule="evenodd">
        <g id="3.1-筛选" transform="translate(-77.000000, -62.000000)" fill="#2474FF" fill-rule="nonzero">
            <g id="底部导航-TabBar/默认" transform="translate(25.000000, 56.000000)">
                <g id="底部背景">
                    <path d="M56.2614595,25.6950234 L58.9494437,22.7097145 C60.0927351,23.52225 61.4905753,24 63,24 C64.5198641,24 65.9265949,23.5156188 67.0742412,22.6928077 L69.761418,25.6772198 C67.896114,27.1327656 65.5493337,28 63,28 C60.4610776,28 58.1230576,27.1398346 56.2614595,25.6950234 Z M56.0241697,25.5055791 L55.2753868,24.831372 C55.5144988,25.0672445 55.7643601,25.2922472 56.0241697,25.5055791 Z M55.1415625,24.6970801 C54.2688987,23.8062375 53.5464992,22.7676322 53.0153771,21.6222772 L56.7640272,20.1833053 C57.0495561,20.7415274 57.4078368,21.2563637 57.8263625,21.7153077 L55.1415625,24.6970801 Z M52.9845495,21.5552063 C52.8014731,21.1533251 52.6418742,20.7384935 52.5075055,20.3124641 L52.9845495,21.5552063 Z M52.4792129,20.2213739 C52.1676394,19.2025403 52,18.1208473 52,17 C52,11.1703442 56.5349127,6.39987393 62.2694539,6.02387357 L62.2694539,10.0376629 C58.7467825,10.4029674 56,13.380711 56,17 C56,17.6158164 56.0795207,18.2130597 56.2288537,18.7820216 L52.4792129,20.2213739 Z M62.7659118,6.00244141 C62.8437451,6.00081649 62.9217772,6 63,6 C63.0782228,6 63.1562549,6.00081649 63.2340882,6.00244141 L62.7659118,6.00244141 Z M63.7694539,6.02649333 C69.4855862,6.42146747 74,11.1835348 74,17 C74,19.9861076 72.8101451,22.6943097 70.8786854,24.6763562 L68.1931749,21.6937945 C69.3161065,20.4521651 70,18.8059485 70,17 C70,13.3940468 67.2734221,10.4249201 63.7694539,10.0418073 L63.7694539,6.02649333 Z M63,22 C60.2385763,22 58,19.7614237 58,17 C58,14.2385763 60.2385763,12 63,12 C65.7614237,12 68,14.2385763 68,17 C68,19.7614237 65.7614237,22 63,22 Z" id="图标/聚合流量指标/选中"></path>
                </g>
            </g>
        </g>
    </g>
</svg>