<?xml version="1.0" encoding="UTF-8"?>
<svg width="20px" height="23px" viewBox="0 0 20 23" version="1.1" xmlns="http://www.w3.org/2000/svg" xmlns:xlink="http://www.w3.org/1999/xlink">
    <!-- Generator: Sketch 55.2 (78181) - https://sketchapp.com -->
    <title>形状结合</title>
    <desc>Created with Sketch.</desc>
    <defs>
        <rect id="path-1" x="0" y="0" width="375" height="49"></rect>
    </defs>
    <g id="全流程" stroke="none" stroke-width="1" fill="none" fill-rule="evenodd">
        <g id="3.1-筛选" transform="translate(-203.000000, -217.000000)">
            <rect id="bg" fill="#F7F7F7" x="0" y="0" width="1205" height="667"></rect>
            <g id="底部导航-TabBar/默认备份-2" transform="translate(25.000000, 211.000000)">
                <g id="底部背景">
                    <g id="Background">
                        <use fill="#FFFFFF" xlink:href="#path-1"></use>
                        <use stroke-opacity="0.07" stroke="#000000" stroke-width="1" fill-opacity="0.02" fill="#000000" xlink:href="#path-1"></use>
                    </g>
                    <path d="M196.934793,10.8246741 C197.594552,11.2063285 198.005792,11.9163832 197.999938,12.6796921 L197.999938,21.7536 C197.999938,22.5139503 197.588635,23.2269636 196.928876,23.608618 L189.070937,28.1470513 C188.742537,28.3393578 188.369758,28.4340317 187.999938,28.4340317 C187.630117,28.4340317 187.260297,28.3393578 186.928938,28.1470513 L183.662687,26.2624476 L179.070999,23.6115766 C178.41124,23.2269636 178,22.5169089 178,21.7536 L178,12.6796921 C178,11.9193418 178.41124,11.2063285 179.070999,10.8246741 L186.928938,6.28624082 C187.591656,5.90458639 188.411178,5.90458639 189.073895,6.28624082 L196.934793,10.8246741 Z M196.526512,21.7565586 L196.520595,21.7565586 L196.520595,12.6796921 C196.520595,12.4430072 196.393376,12.2211151 196.189236,12.1027726 L188.331297,7.56729792 C188.230705,7.50812669 188.115322,7.47854108 187.999938,7.47854108 C187.884554,7.47854108 187.772128,7.50812669 187.668579,7.56729792 L179.81064,12.1057312 C179.606499,12.2240736 179.479281,12.4430072 179.479281,12.6796921 L179.479281,21.7565586 C179.479281,21.9932435 179.606499,22.2151356 179.81064,22.333478 L184.402327,24.9843491 L187.668579,26.8689527 C187.875678,26.9872952 188.130114,26.9872952 188.334255,26.8689527 L196.195153,22.3305195 C196.399294,22.212177 196.526512,21.9932435 196.526512,21.7565586 Z M193.644873,13.7270228 C193.851972,13.8364896 193.991025,14.0376718 194.026527,14.2625225 C194.035403,14.3039423 194.038362,14.3453622 194.038362,14.3897406 L194.038362,20.0553857 C194.038362,20.2506508 193.95848,20.4399987 193.819428,20.5790511 C193.769132,20.6293467 193.709961,20.6737251 193.644873,20.7092278 L188.352006,23.5405711 C188.24254,23.5997423 188.124197,23.629328 188.002896,23.629328 C187.881595,23.629328 187.763253,23.5997423 187.653786,23.5405711 L182.36092,20.7092278 C182.295831,20.6766836 182.23666,20.6323052 182.186364,20.5820097 C182.047312,20.4429573 181.967431,20.2506508 181.967431,20.0553857 L181.967431,14.3897406 C181.967431,14.3453622 181.973348,14.3039423 181.979265,14.2625225 C182.014768,14.0376718 182.15382,13.8364896 182.36092,13.7270228 L187.653786,10.8956795 C187.87272,10.7802956 188.133073,10.7802956 188.352006,10.8956795 L193.644873,13.7270228 Z M188.002896,12.3867945 L184.278067,14.3779063 L188.002896,16.3719768 L191.727725,14.3779063 L188.002896,12.3867945 Z M183.446712,15.6116265 L183.446712,19.6145601 L187.23367,21.6352576 L187.23367,17.6352825 L183.446712,15.6116265 Z M188.712951,21.6707603 L192.559081,19.6145601 L192.559081,15.614585 L188.712951,17.6707852 L188.712951,21.6707603 Z" id="形状结合" fill="#6B747D" fill-rule="nonzero"></path>
                </g>
            </g>
        </g>
    </g>
</svg>