<?xml version="1.0" encoding="UTF-8"?>
<svg width="48px" height="48px" viewBox="0 0 48 48" version="1.1" xmlns="http://www.w3.org/2000/svg" xmlns:xlink="http://www.w3.org/1999/xlink">
    <!-- Generator: Sketch 55.2 (78181) - https://sketchapp.com -->
    <title>mtdicon/outlined/rounded/ellipsis copy</title>
    <desc>Created with Sketch.</desc>
    <g id="mtdicon/outlined/rounded/ellipsis-copy" stroke="none" stroke-width="1" fill="none" fill-rule="evenodd">
        <g id="参考线" opacity="0">
            <g>
                <rect id="矩形" fill="#FFFFFF" fill-rule="nonzero" x="0" y="0" width="48" height="48"></rect>
                <circle id="椭圆形" stroke="#003CFF" stroke-width="0.2" opacity="0.600000024" fill-rule="nonzero" cx="24" cy="24" r="19.9"></circle>
                <circle id="椭圆形" stroke="#003CFF" stroke-width="0.2" opacity="0.600000024" fill-rule="nonzero" cx="24" cy="24" r="9.9"></circle>
                <rect id="矩形" stroke="#003CFF" stroke-width="0.2" opacity="0.600000024" fill-rule="nonzero" x="6.1" y="6.1" width="35.8" height="35.8" rx="2"></rect>
                <rect id="矩形" stroke="#003CFF" stroke-width="0.2" opacity="0.600000024" fill-rule="nonzero" x="8.1" y="4.1" width="31.8" height="39.8" rx="2"></rect>
                <rect id="矩形" stroke="#003CFF" stroke-width="0.2" opacity="0.600000024" fill-rule="nonzero" x="4.1" y="8.1" width="39.8" height="31.8" rx="2"></rect>
            </g>
        </g>
        <path d="M11,21.5 C12.6568542,21.5 14,22.8431458 14,24.5 C14,26.1568542 12.6568542,27.5 11,27.5 C9.34314575,27.5 8,26.1568542 8,24.5 C8,22.8431458 9.34314575,21.5 11,21.5 Z M24,21.5 C25.6568542,21.5 27,22.8431458 27,24.5 C27,26.1568542 25.6568542,27.5 24,27.5 C22.3431458,27.5 21,26.1568542 21,24.5 C21,22.8431458 22.3431458,21.5 24,21.5 Z M37,21.5 C38.6568542,21.5 40,22.8431458 40,24.5 C40,26.1568542 38.6568542,27.5 37,27.5 C35.3431458,27.5 34,26.1568542 34,24.5 C34,22.8431458 35.3431458,21.5 37,21.5 Z" id="Combined-Shape" fill-opacity="0.87" fill="#000000" fill-rule="nonzero"></path>
    </g>
</svg>